<svg width="48" height="48" viewBox="0 0 48 48" fill="none" xmlns="http://www.w3.org/2000/svg">
<g clip-path="url(#clip0_23_40)">
<path d="M47.044 12.3708C46.7726 11.3496 46.2378 10.4177 45.493 9.66813C44.7483 8.9186 43.8197 8.37782 42.8003 8.09991C39.0476 7.09082 24.0476 7.09082 24.0476 7.09082C24.0476 7.09082 9.04761 7.09082 5.29488 8.09991C4.27547 8.37782 3.34693 8.9186 2.60218 9.66813C1.85744 10.4177 1.32262 11.3496 1.05124 12.3708C0.0476075 16.1399 0.0476074 23.9999 0.0476074 23.9999C0.0476074 23.9999 0.0476075 31.8599 1.05124 35.629C1.32262 36.6502 1.85744 37.5822 2.60218 38.3317C3.34693 39.0812 4.27547 39.622 5.29488 39.8999C9.04761 40.909 24.0476 40.909 24.0476 40.909C24.0476 40.909 39.0476 40.909 42.8003 39.8999C43.8197 39.622 44.7483 39.0812 45.493 38.3317C46.2378 37.5822 46.7726 36.6502 47.044 35.629C48.0476 31.8599 48.0476 23.9999 48.0476 23.9999C48.0476 23.9999 48.0476 16.1399 47.044 12.3708Z" fill="#FF0302"/>
<path d="M19.1385 31.1373V16.8628L31.684 24.0001L19.1385 31.1373Z" fill="#FEFEFE"/>
</g>
<defs>
<clipPath id="clip0_23_40">
<rect width="48" height="48" fill="white"/>
</clipPath>
</defs>
</svg>
